<svg id="svg" version="1.1" xmlns="http://www.w3.org/2000/svg" xmlns:xlink="http://www.w3.org/1999/xlink" width="400" height="400" viewBox="0, 0, 400,400"><g id="svgg"><path id="path0" d="M36.876 134.509 C 36.508 134.952,36.421 150.068,36.499 199.842 L 36.600 264.600 60.200 264.724 C 88.186 264.872,88.580 264.836,95.600 261.468 C 99.112 259.783,103.984 256.123,105.649 253.917 C 106.172 253.224,106.983 252.194,107.451 251.629 C 108.980 249.780,111.600 244.864,111.600 243.843 C 111.600 243.515,111.760 243.148,111.956 243.027 C 112.334 242.794,112.574 241.614,113.223 236.800 C 113.808 232.461,113.553 159.671,112.949 158.600 C 112.701 158.160,112.284 157.080,112.022 156.200 C 111.558 154.641,110.018 151.201,109.605 150.800 C 109.491 150.690,109.129 150.060,108.799 149.400 C 108.470 148.740,107.972 147.959,107.694 147.665 C 107.416 147.371,106.698 146.471,106.099 145.665 C 105.500 144.859,104.396 143.660,103.646 143.000 C 102.896 142.340,101.742 141.329,101.082 140.754 C 100.423 140.178,98.874 139.189,97.641 138.556 C 96.409 137.923,95.310 137.290,95.200 137.149 C 94.921 136.793,91.463 135.615,88.600 134.900 C 85.032 134.008,37.589 133.650,36.876 134.509 M142.400 199.400 L 142.400 264.800 149.997 264.800 L 157.595 264.800 157.697 234.900 L 157.800 205.000 182.700 204.897 L 207.600 204.794 207.600 199.397 L 207.600 194.000 182.597 194.000 L 157.594 194.000 157.697 169.500 L 157.800 145.000 188.600 144.800 L 219.400 144.600 219.516 140.200 C 219.580 137.780,219.532 135.395,219.409 134.900 L 219.185 134.000 180.792 134.000 L 142.400 134.000 142.400 199.400 M239.255 134.533 C 238.915 134.943,238.824 151.689,238.899 199.842 L 239.000 264.600 246.400 264.600 L 253.800 264.600 253.800 199.400 L 253.800 134.200 246.756 134.091 C 241.158 134.004,239.619 134.095,239.255 134.533 M282.998 134.466 C 282.886 134.760,282.841 164.160,282.897 199.800 L 283.000 264.600 290.400 264.600 L 297.800 264.600 298.000 236.800 L 298.200 209.000 303.800 208.885 C 310.570 208.746,310.843 208.804,311.824 210.595 C 312.565 211.950,317.315 219.474,322.559 227.600 C 323.908 229.690,325.264 231.895,325.573 232.500 C 325.882 233.105,326.285 233.600,326.468 233.600 C 326.650 233.600,326.800 233.770,326.800 233.977 C 326.800 234.185,328.015 236.244,329.500 238.553 C 337.663 251.246,339.014 253.374,339.162 253.768 C 339.251 254.006,340.196 255.497,341.262 257.082 C 342.328 258.667,343.200 260.152,343.200 260.382 C 343.200 260.612,343.336 260.800,343.502 260.800 C 343.669 260.800,344.029 261.306,344.303 261.925 C 345.577 264.805,345.561 264.800,354.603 264.800 C 364.087 264.800,363.534 265.307,359.930 259.915 C 358.648 257.999,357.600 256.244,357.600 256.015 C 357.600 255.787,357.420 255.600,357.200 255.600 C 356.980 255.600,356.800 255.420,356.800 255.201 C 356.800 254.982,355.600 252.957,354.134 250.701 C 352.667 248.445,350.956 245.790,350.331 244.800 C 349.706 243.810,349.018 242.730,348.802 242.400 C 346.525 238.917,345.200 236.706,345.200 236.387 C 345.200 236.174,345.020 236.000,344.800 236.000 C 344.580 236.000,344.400 235.730,344.400 235.400 C 344.400 235.070,344.220 234.800,344.000 234.800 C 343.780 234.800,343.600 234.613,343.600 234.385 C 343.600 234.156,342.552 232.401,341.270 230.485 C 339.989 228.568,338.821 226.730,338.675 226.400 C 338.529 226.070,337.332 224.180,336.016 222.200 C 334.699 220.220,333.071 217.700,332.398 216.600 C 331.725 215.500,330.955 214.243,330.687 213.807 C 330.419 213.370,329.705 212.258,329.100 211.335 C 327.997 209.651,327.740 208.828,328.300 208.768 C 328.465 208.751,330.040 208.586,331.800 208.402 C 339.588 207.587,347.290 203.438,352.312 197.352 C 354.363 194.867,357.600 189.502,357.600 188.588 C 357.600 188.291,357.759 187.949,357.954 187.829 C 358.149 187.708,358.425 187.023,358.569 186.305 C 358.713 185.587,359.032 184.100,359.279 183.000 C 360.143 179.145,359.800 160.156,358.823 157.800 C 358.640 157.360,358.257 156.190,357.971 155.200 C 357.685 154.210,357.162 152.950,356.809 152.400 C 356.455 151.850,355.814 150.706,355.383 149.858 C 354.368 147.859,350.037 142.763,348.329 141.559 C 347.598 141.043,346.651 140.302,346.225 139.911 C 345.798 139.520,345.228 139.200,344.958 139.200 C 344.688 139.200,344.407 139.064,344.333 138.898 C 344.075 138.314,338.966 136.013,336.000 135.145 C 332.230 134.042,283.397 133.416,282.998 134.466 M82.460 145.500 C 82.735 145.775,83.363 146.000,83.856 146.000 C 84.349 146.000,84.864 146.180,85.000 146.400 C 85.136 146.620,85.597 146.800,86.024 146.800 C 86.451 146.800,86.800 146.936,86.800 147.102 C 86.800 147.269,87.383 147.663,88.095 147.978 C 90.155 148.890,94.913 153.919,96.067 156.405 C 96.628 157.612,97.337 159.140,97.643 159.800 C 98.368 161.362,98.698 234.036,97.996 237.418 C 96.518 244.540,90.982 250.529,83.555 253.042 C 80.773 253.983,80.469 254.000,66.162 254.000 L 51.600 254.000 51.600 199.667 C 51.600 169.783,51.735 145.196,51.900 145.027 C 52.439 144.477,81.893 144.933,82.460 145.500 M328.860 145.500 C 329.135 145.775,329.659 146.000,330.024 146.000 C 334.742 146.000,342.562 154.564,344.237 161.564 C 344.855 164.149,345.017 179.406,344.442 180.881 C 344.245 181.387,343.848 182.610,343.560 183.600 C 341.753 189.817,336.013 195.320,329.200 197.367 C 327.296 197.939,325.059 198.012,312.600 197.914 L 298.200 197.800 298.096 171.800 C 298.039 157.500,298.086 145.556,298.200 145.257 C 298.491 144.497,328.091 144.731,328.860 145.500 " stroke="none" fill="#f9fafb" fill-rule="evenodd"></path><path id="path1" d="M85.200 134.020 C 87.614 134.450,89.506 134.413,87.400 133.977 C 86.520 133.795,85.260 133.658,84.600 133.673 C 83.700 133.693,83.850 133.780,85.200 134.020 M219.500 134.030 C 220.023 134.584,220.236 143.319,219.757 144.567 C 219.539 145.135,216.369 145.210,188.657 145.297 L 157.800 145.395 188.200 145.508 C 204.920 145.570,219.010 145.521,219.511 145.400 C 220.674 145.118,220.758 134.036,219.600 133.683 C 219.116 133.535,219.096 133.602,219.500 134.030 M238.267 133.867 C 237.744 134.389,237.956 264.596,238.480 265.120 C 239.157 265.797,253.643 265.797,254.320 265.120 C 254.866 264.574,255.044 134.198,254.500 133.862 C 254.335 133.760,254.200 163.224,254.200 199.338 L 254.200 265.000 247.200 265.114 C 243.350 265.177,239.795 265.128,239.300 265.006 L 238.400 264.785 238.400 199.672 C 238.400 149.563,238.511 134.449,238.880 134.080 C 239.167 133.793,239.194 133.600,238.947 133.600 C 238.719 133.600,238.413 133.720,238.267 133.867 M282.267 133.867 C 281.609 134.525,281.972 265.104,282.633 265.357 C 283.550 265.709,297.918 265.656,298.139 265.300 C 298.241 265.135,294.787 265.000,290.462 265.000 L 282.600 265.000 282.499 199.842 C 282.425 152.017,282.517 134.541,282.848 134.142 C 283.295 133.603,282.776 133.357,282.267 133.867 M331.400 134.023 C 332.280 134.205,333.450 134.344,334.000 134.331 C 334.641 134.316,334.426 134.189,333.400 133.977 C 332.520 133.795,331.350 133.656,330.800 133.669 C 330.159 133.684,330.374 133.811,331.400 134.023 M35.698 199.420 C 35.622 249.723,35.710 264.750,36.080 265.120 C 36.445 265.485,42.235 265.577,60.180 265.505 L 83.800 265.410 60.000 265.205 L 36.200 265.000 35.998 199.600 L 35.796 134.200 35.698 199.420 M92.134 135.576 C 93.857 136.198,95.468 136.908,95.714 137.154 C 95.959 137.399,96.349 137.597,96.580 137.593 C 96.811 137.590,96.443 137.229,95.761 136.793 C 94.496 135.982,90.227 134.382,89.437 134.422 C 89.197 134.435,90.410 134.954,92.134 135.576 M336.000 134.741 C 336.330 134.934,337.140 135.209,337.800 135.352 C 338.568 135.518,338.784 135.484,338.400 135.259 C 338.070 135.066,337.260 134.791,336.600 134.648 C 335.832 134.482,335.616 134.516,336.000 134.741 M141.795 199.600 C 141.795 235.350,141.842 249.975,141.900 232.100 C 141.958 214.225,141.958 184.975,141.900 167.100 C 141.842 149.225,141.795 163.850,141.795 199.600 M340.146 136.202 C 341.605 136.963,341.975 136.968,340.976 136.213 C 340.549 135.890,339.930 135.621,339.600 135.615 C 339.270 135.610,339.516 135.874,340.146 136.202 M97.423 138.037 C 97.546 138.237,97.845 138.400,98.086 138.400 C 98.327 138.400,99.171 138.863,99.962 139.429 L 101.400 140.458 100.058 139.264 C 98.776 138.125,96.952 137.275,97.423 138.037 M102.488 141.413 C 103.086 142.043,103.647 142.477,103.735 142.379 C 103.823 142.280,103.333 141.765,102.647 141.234 L 101.400 140.269 102.488 141.413 M349.771 142.297 C 350.415 143.009,351.030 143.504,351.138 143.396 C 351.245 143.288,351.258 143.155,351.167 143.100 C 351.075 143.045,350.460 142.551,349.800 142.001 L 348.600 141.003 349.771 142.297 M52.185 145.700 C 52.080 145.975,52.041 170.410,52.097 200.000 L 52.200 253.800 65.400 253.808 L 78.600 253.817 65.500 253.703 L 52.400 253.589 52.400 199.600 L 52.400 145.611 65.900 145.500 L 79.400 145.389 65.887 145.294 C 55.375 145.221,52.333 145.311,52.185 145.700 M298.497 171.500 L 298.594 197.800 298.700 171.705 L 298.806 145.611 312.103 145.500 L 325.400 145.389 311.900 145.294 L 298.400 145.200 298.497 171.500 M82.800 146.390 C 84.010 146.823,85.180 147.175,85.400 147.173 C 86.124 147.165,83.354 146.096,81.962 145.847 C 81.083 145.689,81.380 145.882,82.800 146.390 M327.800 146.000 C 328.240 146.189,328.870 146.344,329.200 146.344 C 329.578 146.344,329.504 146.217,329.000 146.000 C 328.560 145.811,327.930 145.656,327.600 145.656 C 327.222 145.656,327.296 145.783,327.800 146.000 M108.293 147.997 C 108.868 148.876,109.423 149.511,109.525 149.408 C 109.707 149.226,107.713 146.400,107.403 146.400 C 107.317 146.400,107.718 147.119,108.293 147.997 M330.033 146.548 C 330.375 146.852,334.000 148.348,334.000 148.186 C 334.000 147.921,330.890 146.400,330.349 146.400 C 330.084 146.400,329.942 146.467,330.033 146.548 M336.563 150.222 C 337.793 151.224,338.800 152.169,338.801 152.322 C 338.801 152.475,339.341 153.230,340.000 154.000 C 340.659 154.770,341.199 155.625,341.199 155.900 C 341.200 156.175,341.390 156.400,341.623 156.400 C 342.421 156.400,340.600 153.828,337.880 151.114 C 336.385 149.621,334.973 148.400,334.744 148.400 C 334.514 148.400,335.333 149.220,336.563 150.222 M90.400 150.082 C 90.400 150.213,91.030 150.950,91.800 151.720 C 92.570 152.490,93.200 152.993,93.200 152.838 C 93.200 152.684,92.570 151.946,91.800 151.200 C 91.030 150.454,90.400 149.950,90.400 150.082 M110.590 151.901 C 111.781 154.206,111.994 154.526,111.989 154.000 C 111.985 153.670,111.611 152.950,111.156 152.400 C 110.702 151.850,110.447 151.626,110.590 151.901 M358.828 156.676 C 358.918 157.715,359.544 158.596,359.572 157.724 C 359.587 157.242,359.420 156.736,359.200 156.600 C 358.980 156.464,358.813 156.498,358.828 156.676 M112.846 157.600 C 112.865 157.930,113.024 158.650,113.200 159.200 L 113.520 160.200 113.554 159.200 C 113.573 158.650,113.413 157.930,113.200 157.600 C 112.855 157.067,112.816 157.067,112.846 157.600 M359.868 161.000 C 360.171 162.977,360.402 163.314,360.394 161.767 C 360.391 161.125,360.216 160.330,360.005 160.000 C 359.745 159.591,359.701 159.910,359.868 161.000 M113.800 199.600 C 113.800 220.966,113.917 238.032,114.060 237.524 C 114.203 237.016,114.320 219.950,114.320 199.600 C 114.320 179.250,114.203 162.184,114.060 161.676 C 113.917 161.168,113.800 178.234,113.800 199.600 M343.680 162.400 C 343.680 162.950,343.824 163.850,344.000 164.400 L 344.320 165.400 344.320 164.400 C 344.320 163.850,344.176 162.950,344.000 162.400 L 343.680 161.400 343.680 162.400 M97.792 199.800 C 97.792 220.040,97.840 228.379,97.900 218.330 C 97.959 208.282,97.959 191.722,97.900 181.530 C 97.840 171.339,97.792 179.560,97.792 199.800 M343.818 178.726 C 343.653 179.895,343.613 180.946,343.729 181.062 C 344.014 181.347,344.531 177.787,344.300 177.125 C 344.200 176.836,343.982 177.557,343.818 178.726 M360.070 180.050 C 360.031 180.628,359.898 181.708,359.773 182.450 C 359.589 183.551,359.630 183.670,359.996 183.095 C 360.243 182.707,360.377 181.627,360.293 180.695 C 360.209 179.763,360.108 179.472,360.070 180.050 M343.067 182.667 C 342.920 182.813,342.811 183.308,342.825 183.767 C 342.849 184.533,342.882 184.523,343.234 183.642 C 343.626 182.663,343.544 182.189,343.067 182.667 M359.254 184.867 C 359.225 185.234,359.084 185.864,358.941 186.267 C 358.741 186.833,358.795 186.896,359.175 186.546 C 359.446 186.297,359.587 185.667,359.488 185.146 C 359.390 184.626,359.284 184.500,359.254 184.867 M340.585 188.100 C 339.951 189.061,339.766 189.552,340.158 189.229 C 340.818 188.687,342.196 186.400,341.863 186.400 C 341.777 186.400,341.202 187.165,340.585 188.100 M357.000 190.800 C 356.659 191.460,356.469 192.000,356.579 192.000 C 356.689 192.000,357.059 191.460,357.400 190.800 C 357.741 190.140,357.931 189.600,357.821 189.600 C 357.711 189.600,357.341 190.140,357.000 190.800 M337.715 191.610 C 336.789 192.485,336.167 193.200,336.334 193.200 C 336.501 193.200,337.341 192.480,338.200 191.600 C 340.210 189.541,339.900 189.548,337.715 191.610 M207.800 199.319 L 207.800 205.000 182.800 205.206 L 157.800 205.412 183.000 205.406 L 208.200 205.400 208.312 199.832 C 208.373 196.769,208.283 194.123,208.112 193.951 C 207.940 193.779,207.800 196.195,207.800 199.319 M332.800 195.236 C 332.136 195.779,332.069 195.915,332.600 195.640 C 333.905 194.966,334.628 194.412,334.200 194.415 C 333.980 194.417,333.350 194.786,332.800 195.236 M352.668 197.500 C 351.647 198.765,350.314 200.194,349.706 200.676 C 349.098 201.158,347.970 202.117,347.200 202.808 L 345.800 204.063 347.195 203.137 C 348.866 202.027,352.648 198.298,353.933 196.495 C 355.405 194.427,354.690 194.996,352.668 197.500 M326.400 197.200 L 325.000 197.495 326.400 197.541 C 327.170 197.567,328.070 197.413,328.400 197.200 C 329.127 196.730,328.633 196.730,326.400 197.200 M335.200 208.400 C 334.376 208.664,334.341 208.726,335.000 208.754 C 335.440 208.773,336.070 208.613,336.400 208.400 C 337.101 207.947,336.614 207.947,335.200 208.400 M329.700 209.089 C 328.375 209.254,328.031 209.725,328.862 210.238 C 329.148 210.415,329.215 210.348,329.038 210.062 C 328.845 209.749,329.179 209.598,330.076 209.594 C 330.804 209.591,331.670 209.413,332.000 209.200 C 332.654 208.778,332.335 208.762,329.700 209.089 M298.584 209.700 C 298.479 209.975,298.441 222.440,298.499 237.400 L 298.606 264.600 298.703 237.111 L 298.800 209.621 304.700 209.499 L 310.600 209.377 304.687 209.288 C 300.259 209.222,298.727 209.326,298.584 209.700 M329.456 211.300 C 330.946 213.761,333.283 217.200,333.465 217.200 C 333.590 217.200,333.370 216.705,332.977 216.100 C 330.621 212.472,329.467 210.800,329.320 210.800 C 329.228 210.800,329.289 211.025,329.456 211.300 M314.605 216.165 C 314.989 216.806,315.659 217.931,316.092 218.665 C 316.525 219.399,316.963 220.000,317.065 220.000 C 317.344 220.000,315.679 217.143,314.733 216.000 L 313.905 215.000 314.605 216.165 M333.600 217.755 C 333.600 218.085,335.650 221.200,335.867 221.200 C 336.108 221.200,335.183 219.532,334.340 218.446 C 333.933 217.921,333.600 217.610,333.600 217.755 M318.622 222.700 C 320.759 225.995,321.324 226.800,321.499 226.800 C 321.605 226.800,321.371 226.305,320.978 225.700 C 318.841 222.405,318.276 221.600,318.101 221.600 C 317.995 221.600,318.229 222.095,318.622 222.700 M340.400 228.247 C 340.400 228.467,340.664 228.996,340.987 229.424 C 341.310 229.851,341.575 230.020,341.575 229.800 C 341.575 229.580,341.310 229.051,340.987 228.624 C 340.664 228.196,340.400 228.027,340.400 228.247 M323.200 229.752 C 323.200 230.095,326.062 234.400,326.289 234.400 C 326.504 234.400,324.926 231.759,323.926 230.446 C 323.527 229.921,323.200 229.609,323.200 229.752 M343.831 233.900 C 344.228 234.505,345.087 235.857,345.739 236.904 C 346.391 237.952,347.000 238.734,347.091 238.642 C 347.274 238.460,343.597 232.800,343.295 232.800 C 343.192 232.800,343.433 233.295,343.831 233.900 M328.809 238.646 C 328.821 239.113,330.380 241.100,330.391 240.663 C 330.396 240.478,330.040 239.869,329.600 239.309 C 329.160 238.750,328.804 238.451,328.809 238.646 M113.260 239.667 C 113.227 240.254,113.096 241.064,112.970 241.467 C 112.752 242.160,112.765 242.161,113.195 241.490 C 113.446 241.099,113.577 240.289,113.486 239.690 L 113.320 238.600 113.260 239.667 M348.609 241.426 C 348.981 242.101,349.641 243.091,350.076 243.626 L 350.867 244.600 350.191 243.374 C 349.819 242.699,349.159 241.709,348.724 241.174 L 347.933 240.200 348.609 241.426 M111.061 246.300 L 110.374 247.800 111.178 246.800 C 111.871 245.938,112.267 244.800,111.874 244.800 C 111.805 244.800,111.439 245.475,111.061 246.300 M333.682 246.234 C 334.187 247.133,334.923 248.303,335.318 248.834 C 335.712 249.365,335.622 249.065,335.118 248.166 C 334.613 247.267,333.877 246.097,333.482 245.566 C 333.088 245.035,333.178 245.335,333.682 246.234 M91.000 248.066 C 90.340 248.707,88.855 249.778,87.700 250.445 C 85.082 251.958,84.913 252.429,87.500 251.002 C 89.575 249.858,92.695 247.352,92.391 247.074 C 92.286 246.979,91.660 247.425,91.000 248.066 M352.409 247.337 C 352.404 247.522,352.760 248.131,353.200 248.691 C 353.640 249.250,353.996 249.549,353.991 249.354 C 353.979 248.887,352.420 246.900,352.409 247.337 M109.386 249.300 L 108.752 250.600 109.567 249.600 C 110.352 248.637,110.608 248.000,110.210 248.000 C 110.106 248.000,109.735 248.585,109.386 249.300 M354.985 251.500 C 355.602 252.435,356.183 253.200,356.276 253.200 C 356.564 253.200,355.033 250.766,354.432 250.269 C 354.120 250.011,354.368 250.565,354.985 251.500 M337.194 251.900 C 337.659 252.725,338.412 253.850,338.867 254.400 L 339.695 255.400 338.995 254.235 C 338.611 253.594,337.941 252.469,337.508 251.735 C 336.425 249.898,336.148 250.044,337.194 251.900 M79.800 253.200 C 78.730 253.472,78.708 253.505,79.600 253.505 C 80.150 253.505,81.140 253.368,81.800 253.200 C 82.870 252.928,82.892 252.895,82.000 252.895 C 81.450 252.895,80.460 253.032,79.800 253.200 M104.581 255.700 L 103.000 257.400 104.700 255.819 C 106.281 254.348,106.584 254.000,106.281 254.000 C 106.216 254.000,105.451 254.765,104.581 255.700 M102.184 257.626 C 102.039 257.861,101.191 258.581,100.300 259.226 C 99.409 259.872,98.864 260.400,99.089 260.400 C 99.549 260.400,103.154 257.242,102.724 257.216 C 102.572 257.207,102.329 257.392,102.184 257.626 M359.445 258.612 C 359.810 259.169,360.186 259.547,360.282 259.451 C 360.519 259.214,359.484 257.600,359.095 257.600 C 358.922 257.600,359.080 258.056,359.445 258.612 M342.022 259.400 C 342.027 259.929,343.142 261.391,343.369 261.165 C 343.466 261.068,343.202 260.541,342.782 259.994 C 342.361 259.447,342.020 259.180,342.022 259.400 M97.100 261.029 C 96.495 261.357,96.000 261.710,96.000 261.813 C 96.000 262.199,96.632 261.957,97.600 261.200 C 98.789 260.270,98.611 260.209,97.100 261.029 M361.442 261.700 C 361.601 261.975,362.073 262.694,362.491 263.297 C 362.909 263.901,363.139 264.576,363.002 264.797 C 362.636 265.388,346.993 265.331,345.874 264.735 C 345.084 264.314,345.053 264.333,345.549 264.935 C 346.030 265.517,347.162 265.600,354.662 265.600 C 364.337 265.600,364.393 265.580,362.576 262.836 C 361.590 261.346,360.751 260.506,361.442 261.700 M86.400 264.800 L 84.600 265.080 86.200 265.112 C 87.080 265.129,88.160 264.989,88.600 264.800 C 89.527 264.402,88.961 264.402,86.400 264.800 M157.600 264.750 C 157.600 265.115,155.700 265.204,149.838 265.116 C 145.568 265.052,142.159 265.135,142.261 265.300 C 142.563 265.787,157.513 265.665,157.816 265.173 C 157.961 264.939,157.972 264.639,157.840 264.507 C 157.708 264.375,157.600 264.484,157.600 264.750 " stroke="none" fill="#6589c1" fill-rule="evenodd"></path><path id="path2" d="M116.500 0.289 C 114.465 0.367,112.800 0.603,112.800 0.815 C 112.800 1.031,111.312 1.200,109.400 1.200 C 107.400 1.200,106.000 1.365,106.000 1.600 C 106.000 1.822,104.933 2.000,103.600 2.000 C 102.267 2.000,101.200 2.178,101.200 2.400 C 101.200 2.620,100.300 2.800,99.200 2.800 C 98.100 2.800,97.200 2.980,97.200 3.200 C 97.200 3.420,96.210 3.600,95.000 3.600 C 93.790 3.600,92.800 3.780,92.800 4.000 C 92.800 4.220,92.080 4.400,91.200 4.400 C 90.320 4.400,89.600 4.580,89.600 4.800 C 89.600 5.020,89.060 5.200,88.400 5.200 C 87.740 5.200,87.200 5.380,87.200 5.600 C 87.200 5.820,86.480 6.000,85.600 6.000 C 84.720 6.000,84.000 6.180,84.000 6.400 C 84.000 6.620,83.460 6.800,82.800 6.800 C 82.140 6.800,81.600 6.980,81.600 7.200 C 81.600 7.420,80.880 7.600,80.000 7.600 C 79.120 7.600,78.400 7.760,78.400 7.955 C 78.400 8.150,77.590 8.431,76.600 8.579 C 75.610 8.728,74.800 9.018,74.800 9.225 C 74.800 9.431,74.361 9.600,73.824 9.600 C 73.287 9.600,72.736 9.780,72.600 10.000 C 72.464 10.220,72.003 10.400,71.576 10.400 C 71.149 10.400,70.800 10.580,70.800 10.800 C 70.800 11.020,70.361 11.200,69.824 11.200 C 69.287 11.200,68.736 11.380,68.600 11.600 C 68.464 11.820,68.048 11.999,67.676 11.997 C 66.825 11.993,60.464 15.152,59.425 16.096 C 58.998 16.483,58.413 16.800,58.125 16.800 C 57.836 16.800,57.600 16.980,57.600 17.200 C 57.600 17.420,57.240 17.600,56.800 17.600 C 56.360 17.600,56.000 17.780,56.000 18.000 C 56.000 18.220,55.640 18.400,55.200 18.400 C 54.760 18.400,54.400 18.580,54.400 18.800 C 54.400 19.020,54.080 19.200,53.688 19.200 C 53.297 19.200,52.717 19.560,52.400 20.000 C 52.083 20.440,51.543 20.800,51.200 20.800 C 50.857 20.800,50.317 21.160,50.000 21.600 C 49.683 22.040,49.143 22.400,48.800 22.400 C 48.457 22.400,47.917 22.760,47.600 23.200 C 47.283 23.640,46.718 24.000,46.345 24.000 C 45.972 24.000,45.607 24.135,45.533 24.300 C 45.460 24.465,44.500 25.317,43.400 26.194 C 42.300 27.071,40.557 28.646,39.526 29.694 C 38.495 30.742,37.457 31.600,37.219 31.600 C 36.653 31.600,31.600 36.653,31.600 37.219 C 31.600 37.457,30.742 38.495,29.694 39.526 C 28.646 40.557,27.071 42.300,26.194 43.400 C 25.317 44.500,24.465 45.460,24.300 45.533 C 24.135 45.607,24.000 45.972,24.000 46.345 C 24.000 46.718,23.640 47.283,23.200 47.600 C 22.760 47.917,22.400 48.457,22.400 48.800 C 22.400 49.143,22.040 49.683,21.600 50.000 C 21.160 50.317,20.800 50.857,20.800 51.200 C 20.800 51.543,20.440 52.083,20.000 52.400 C 19.560 52.717,19.200 53.297,19.200 53.688 C 19.200 54.080,19.020 54.400,18.800 54.400 C 18.580 54.400,18.400 54.760,18.400 55.200 C 18.400 55.640,18.220 56.000,18.000 56.000 C 17.780 56.000,17.600 56.360,17.600 56.800 C 17.600 57.240,17.420 57.600,17.200 57.600 C 16.980 57.600,16.800 57.836,16.800 58.125 C 16.800 58.413,16.483 58.998,16.096 59.425 C 15.139 60.479,11.993 66.830,11.997 67.700 C 11.999 68.085,11.820 68.400,11.600 68.400 C 11.380 68.400,11.200 68.940,11.200 69.600 C 11.200 70.260,11.020 70.800,10.800 70.800 C 10.580 70.800,10.400 71.149,10.400 71.576 C 10.400 72.003,10.220 72.464,10.000 72.600 C 9.780 72.736,9.600 73.287,9.600 73.824 C 9.600 74.361,9.431 74.800,9.225 74.800 C 9.018 74.800,8.728 75.610,8.579 76.600 C 8.431 77.590,8.150 78.400,7.955 78.400 C 7.760 78.400,7.600 79.120,7.600 80.000 C 7.600 80.880,7.420 81.600,7.200 81.600 C 6.980 81.600,6.800 82.140,6.800 82.800 C 6.800 83.460,6.620 84.000,6.400 84.000 C 6.180 84.000,6.000 84.720,6.000 85.600 C 6.000 86.480,5.820 87.200,5.600 87.200 C 5.380 87.200,5.200 87.740,5.200 88.400 C 5.200 89.060,5.020 89.600,4.800 89.600 C 4.580 89.600,4.400 90.410,4.400 91.400 C 4.400 92.390,4.220 93.200,4.000 93.200 C 3.780 93.200,3.600 94.100,3.600 95.200 C 3.600 96.300,3.420 97.200,3.200 97.200 C 2.978 97.200,2.800 98.267,2.800 99.600 C 2.800 100.933,2.622 102.000,2.400 102.000 C 2.180 102.000,2.000 102.900,2.000 104.000 C 2.000 105.100,1.820 106.000,1.600 106.000 C 1.365 106.000,1.200 107.389,1.200 109.367 C 1.200 111.704,1.047 112.784,0.700 112.900 C -0.035 113.145,-0.035 286.855,0.700 287.100 C 1.047 287.216,1.200 288.296,1.200 290.633 C 1.200 292.611,1.365 294.000,1.600 294.000 C 1.822 294.000,2.000 295.067,2.000 296.400 C 2.000 297.733,2.178 298.800,2.400 298.800 C 2.620 298.800,2.800 299.700,2.800 300.800 C 2.800 301.900,2.980 302.800,3.200 302.800 C 3.420 302.800,3.600 303.599,3.600 304.576 C 3.600 305.553,3.780 306.464,4.000 306.600 C 4.220 306.736,4.400 307.647,4.400 308.624 C 4.400 309.601,4.580 310.400,4.800 310.400 C 5.020 310.400,5.200 310.940,5.200 311.600 C 5.200 312.260,5.380 312.800,5.600 312.800 C 5.820 312.800,6.000 313.520,6.000 314.400 C 6.000 315.280,6.180 316.000,6.400 316.000 C 6.620 316.000,6.800 316.540,6.800 317.200 C 6.800 317.860,6.980 318.400,7.200 318.400 C 7.420 318.400,7.600 319.120,7.600 320.000 C 7.600 320.880,7.760 321.600,7.955 321.600 C 8.150 321.600,8.431 322.410,8.579 323.400 C 8.728 324.390,9.018 325.200,9.225 325.200 C 9.431 325.200,9.600 325.639,9.600 326.176 C 9.600 326.713,9.780 327.264,10.000 327.400 C 10.220 327.536,10.400 327.997,10.400 328.424 C 10.400 328.851,10.580 329.200,10.800 329.200 C 11.020 329.200,11.200 329.639,11.200 330.176 C 11.200 330.713,11.380 331.264,11.600 331.400 C 11.820 331.536,12.000 331.997,12.000 332.424 C 12.000 332.851,12.180 333.200,12.400 333.200 C 12.620 333.200,12.800 333.535,12.800 333.944 C 12.800 334.856,15.205 339.600,15.667 339.600 C 15.850 339.600,16.000 339.960,16.000 340.400 C 16.000 340.840,16.180 341.200,16.400 341.200 C 16.620 341.200,16.800 341.470,16.800 341.800 C 16.800 342.130,16.980 342.400,17.200 342.400 C 17.420 342.400,17.600 342.760,17.600 343.200 C 17.600 343.640,17.780 344.000,18.000 344.000 C 18.220 344.000,18.400 344.360,18.400 344.800 C 18.400 345.240,18.580 345.600,18.800 345.600 C 19.020 345.600,19.200 345.920,19.200 346.312 C 19.200 346.703,19.560 347.283,20.000 347.600 C 20.440 347.917,20.800 348.425,20.800 348.728 C 20.800 349.031,21.340 349.783,22.000 350.400 C 22.660 351.017,23.200 351.769,23.200 352.072 C 23.200 352.375,23.560 352.883,24.000 353.200 C 24.440 353.517,24.800 354.033,24.800 354.347 C 24.800 355.073,27.131 357.948,30.095 360.878 C 31.363 362.131,32.400 363.350,32.400 363.588 C 32.400 364.152,35.848 367.600,36.412 367.600 C 36.650 367.600,37.869 368.637,39.122 369.905 C 42.052 372.869,44.927 375.200,45.653 375.200 C 45.967 375.200,46.483 375.560,46.800 376.000 C 47.117 376.440,47.657 376.800,48.000 376.800 C 48.343 376.800,48.883 377.160,49.200 377.600 C 49.517 378.040,50.025 378.400,50.328 378.400 C 50.631 378.400,51.383 378.940,52.000 379.600 C 52.617 380.260,53.409 380.800,53.760 380.800 C 54.112 380.800,54.400 380.980,54.400 381.200 C 54.400 381.420,54.760 381.600,55.200 381.600 C 55.640 381.600,56.000 381.780,56.000 382.000 C 56.000 382.220,56.360 382.400,56.800 382.400 C 57.240 382.400,57.600 382.580,57.600 382.800 C 57.600 383.020,57.870 383.200,58.200 383.200 C 58.530 383.200,58.800 383.380,58.800 383.600 C 58.800 383.820,59.160 384.000,59.600 384.000 C 60.040 384.000,60.400 384.180,60.400 384.400 C 60.400 384.620,60.760 384.800,61.200 384.800 C 61.640 384.800,62.000 384.980,62.000 385.200 C 62.000 385.420,62.278 385.600,62.617 385.600 C 62.956 385.600,63.620 385.960,64.092 386.400 C 64.564 386.840,65.367 387.200,65.875 387.200 C 66.384 387.200,66.800 387.380,66.800 387.600 C 66.800 387.820,67.160 388.000,67.600 388.000 C 68.040 388.000,68.400 388.180,68.400 388.400 C 68.400 388.620,68.940 388.800,69.600 388.800 C 70.260 388.800,70.800 388.980,70.800 389.200 C 70.800 389.420,71.160 389.600,71.600 389.600 C 72.040 389.600,72.400 389.780,72.400 390.000 C 72.400 390.220,72.940 390.400,73.600 390.400 C 74.260 390.400,74.800 390.560,74.800 390.755 C 74.800 390.950,75.610 391.231,76.600 391.379 C 77.590 391.528,78.400 391.818,78.400 392.025 C 78.400 392.231,79.120 392.400,80.000 392.400 C 80.880 392.400,81.600 392.580,81.600 392.800 C 81.600 393.020,82.140 393.200,82.800 393.200 C 83.460 393.200,84.000 393.380,84.000 393.600 C 84.000 393.820,84.720 394.000,85.600 394.000 C 86.480 394.000,87.200 394.180,87.200 394.400 C 87.200 394.620,87.920 394.800,88.800 394.800 C 89.680 394.800,90.400 394.980,90.400 395.200 C 90.400 395.420,91.030 395.600,91.800 395.600 C 92.570 395.600,93.200 395.780,93.200 396.000 C 93.200 396.220,94.100 396.400,95.200 396.400 C 96.300 396.400,97.200 396.580,97.200 396.800 C 97.200 397.022,98.267 397.200,99.600 397.200 C 100.933 397.200,102.000 397.378,102.000 397.600 C 102.000 397.820,102.900 398.000,104.000 398.000 C 105.100 398.000,106.000 398.180,106.000 398.400 C 106.000 398.635,107.389 398.800,109.367 398.800 C 111.704 398.800,112.784 398.953,112.900 399.300 C 113.145 400.035,287.655 400.035,287.900 399.300 C 288.016 398.953,289.096 398.800,291.433 398.800 C 293.411 398.800,294.800 398.635,294.800 398.400 C 294.800 398.180,295.700 398.000,296.800 398.000 C 297.900 398.000,298.800 397.820,298.800 397.600 C 298.800 397.378,299.867 397.200,301.200 397.200 C 302.533 397.200,303.600 397.022,303.600 396.800 C 303.600 396.580,304.410 396.400,305.400 396.400 C 306.390 396.400,307.200 396.220,307.200 396.000 C 307.200 395.780,307.920 395.600,308.800 395.600 C 309.680 395.600,310.400 395.420,310.400 395.200 C 310.400 394.980,311.120 394.800,312.000 394.800 C 312.880 394.800,313.600 394.620,313.600 394.400 C 313.600 394.180,314.140 394.000,314.800 394.000 C 315.460 394.000,316.000 393.820,316.000 393.600 C 316.000 393.380,316.720 393.200,317.600 393.200 C 318.480 393.200,319.200 393.020,319.200 392.800 C 319.200 392.580,319.740 392.400,320.400 392.400 C 321.060 392.400,321.600 392.243,321.600 392.052 C 321.600 391.860,322.493 391.585,323.584 391.440 C 324.675 391.295,325.675 391.002,325.807 390.788 C 325.939 390.575,326.397 390.400,326.824 390.400 C 327.251 390.400,327.600 390.220,327.600 390.000 C 327.600 389.780,328.039 389.600,328.576 389.600 C 329.113 389.600,329.664 389.420,329.800 389.200 C 329.936 388.980,330.397 388.800,330.824 388.800 C 331.251 388.800,331.600 388.620,331.600 388.400 C 331.600 388.180,332.039 388.000,332.576 388.000 C 333.113 388.000,333.664 387.820,333.800 387.600 C 333.936 387.380,334.397 387.200,334.824 387.200 C 335.251 387.200,335.600 387.020,335.600 386.800 C 335.600 386.580,335.960 386.400,336.400 386.400 C 336.840 386.400,337.200 386.254,337.200 386.075 C 337.200 385.896,337.830 385.502,338.600 385.200 C 339.370 384.898,340.000 384.504,340.000 384.325 C 340.000 384.146,340.360 384.000,340.800 384.000 C 341.240 384.000,341.600 383.820,341.600 383.600 C 341.600 383.380,341.920 383.200,342.312 383.200 C 342.703 383.200,343.283 382.840,343.600 382.400 C 343.917 381.960,344.497 381.600,344.888 381.600 C 345.280 381.600,345.600 381.420,345.600 381.200 C 345.600 380.980,345.920 380.800,346.312 380.800 C 346.703 380.800,347.283 380.440,347.600 380.000 C 347.917 379.560,348.457 379.200,348.800 379.200 C 349.143 379.200,349.683 378.840,350.000 378.400 C 350.317 377.960,350.857 377.600,351.200 377.600 C 351.543 377.600,352.083 377.240,352.400 376.800 C 352.717 376.360,353.297 376.000,353.688 376.000 C 354.080 376.000,354.400 375.832,354.400 375.627 C 354.400 375.422,354.747 375.144,355.170 375.009 C 355.594 374.875,357.223 373.513,358.790 371.982 C 360.357 370.452,361.813 369.200,362.025 369.200 C 362.529 369.200,369.200 362.529,369.200 362.025 C 369.200 361.813,370.452 360.357,371.982 358.790 C 373.513 357.223,374.875 355.594,375.009 355.170 C 375.144 354.747,375.422 354.400,375.627 354.400 C 375.832 354.400,376.000 354.080,376.000 353.688 C 376.000 353.297,376.360 352.717,376.800 352.400 C 377.240 352.083,377.600 351.543,377.600 351.200 C 377.600 350.857,377.960 350.317,378.400 350.000 C 378.840 349.683,379.200 349.143,379.200 348.800 C 379.200 348.457,379.560 347.917,380.000 347.600 C 380.440 347.283,380.800 346.703,380.800 346.312 C 380.800 345.920,380.980 345.600,381.200 345.600 C 381.420 345.600,381.600 345.280,381.600 344.888 C 381.600 344.497,381.960 343.917,382.400 343.600 C 382.840 343.283,383.200 342.703,383.200 342.312 C 383.200 341.920,383.380 341.600,383.600 341.600 C 383.820 341.600,384.000 341.240,384.000 340.800 C 384.000 340.360,384.146 340.000,384.325 340.000 C 384.504 340.000,384.898 339.370,385.200 338.600 C 385.502 337.830,385.896 337.200,386.075 337.200 C 386.254 337.200,386.400 336.840,386.400 336.400 C 386.400 335.960,386.580 335.600,386.800 335.600 C 387.020 335.600,387.200 335.251,387.200 334.824 C 387.200 334.397,387.380 333.936,387.600 333.800 C 387.820 333.664,388.000 333.113,388.000 332.576 C 388.000 332.039,388.180 331.600,388.400 331.600 C 388.620 331.600,388.800 331.251,388.800 330.824 C 388.800 330.397,388.980 329.936,389.200 329.800 C 389.420 329.664,389.600 329.113,389.600 328.576 C 389.600 328.039,389.780 327.600,390.000 327.600 C 390.220 327.600,390.400 327.251,390.400 326.824 C 390.400 326.397,390.575 325.939,390.788 325.807 C 391.002 325.675,391.295 324.675,391.440 323.584 C 391.585 322.493,391.860 321.600,392.052 321.600 C 392.243 321.600,392.400 321.060,392.400 320.400 C 392.400 319.740,392.580 319.200,392.800 319.200 C 393.020 319.200,393.200 318.480,393.200 317.600 C 393.200 316.720,393.380 316.000,393.600 316.000 C 393.820 316.000,394.000 315.280,394.000 314.400 C 394.000 313.520,394.180 312.800,394.400 312.800 C 394.620 312.800,394.800 312.260,394.800 311.600 C 394.800 310.940,394.980 310.400,395.200 310.400 C 395.420 310.400,395.600 309.781,395.600 309.024 C 395.600 308.267,395.780 307.536,396.000 307.400 C 396.220 307.264,396.400 306.173,396.400 304.976 C 396.400 303.779,396.580 302.800,396.800 302.800 C 397.020 302.800,397.200 301.900,397.200 300.800 C 397.200 299.700,397.380 298.800,397.600 298.800 C 397.822 298.800,398.000 297.733,398.000 296.400 C 398.000 295.067,398.178 294.000,398.400 294.000 C 398.631 294.000,398.800 292.744,398.800 291.033 C 398.800 289.016,398.960 288.013,399.300 287.900 C 400.035 287.655,400.035 112.345,399.300 112.100 C 398.960 111.987,398.800 110.984,398.800 108.967 C 398.800 107.256,398.631 106.000,398.400 106.000 C 398.178 106.000,398.000 104.933,398.000 103.600 C 398.000 102.267,397.822 101.200,397.600 101.200 C 397.380 101.200,397.200 100.300,397.200 99.200 C 397.200 98.100,397.020 97.200,396.800 97.200 C 396.580 97.200,396.400 96.210,396.400 95.000 C 396.400 93.790,396.220 92.800,396.000 92.800 C 395.780 92.800,395.600 92.080,395.600 91.200 C 395.600 90.320,395.420 89.600,395.200 89.600 C 394.980 89.600,394.800 89.060,394.800 88.400 C 394.800 87.740,394.620 87.200,394.400 87.200 C 394.180 87.200,394.000 86.480,394.000 85.600 C 394.000 84.720,393.820 84.000,393.600 84.000 C 393.380 84.000,393.200 83.460,393.200 82.800 C 393.200 82.140,393.020 81.600,392.800 81.600 C 392.580 81.600,392.400 80.880,392.400 80.000 C 392.400 79.120,392.244 78.400,392.053 78.400 C 391.862 78.400,391.603 77.639,391.478 76.709 C 391.354 75.778,391.060 74.953,390.826 74.875 C 390.592 74.797,390.400 74.208,390.400 73.567 C 390.400 72.925,390.220 72.400,390.000 72.400 C 389.780 72.400,389.600 72.040,389.600 71.600 C 389.600 71.160,389.420 70.800,389.200 70.800 C 388.980 70.800,388.800 70.260,388.800 69.600 C 388.800 68.940,388.620 68.400,388.400 68.400 C 388.180 68.400,388.000 68.040,388.000 67.600 C 388.000 67.160,387.820 66.800,387.600 66.800 C 387.380 66.800,387.200 66.260,387.200 65.600 C 387.200 64.940,387.020 64.400,386.800 64.400 C 386.580 64.400,386.400 64.080,386.400 63.688 C 386.400 63.297,386.040 62.717,385.600 62.400 C 385.160 62.083,384.800 61.503,384.800 61.112 C 384.800 60.720,384.654 60.400,384.475 60.400 C 384.296 60.400,383.902 59.770,383.600 59.000 C 383.298 58.230,382.904 57.600,382.725 57.600 C 382.546 57.600,382.400 57.240,382.400 56.800 C 382.400 56.360,382.220 56.000,382.000 56.000 C 381.780 56.000,381.600 55.640,381.600 55.200 C 381.600 54.760,381.420 54.400,381.200 54.400 C 380.980 54.400,380.800 54.112,380.800 53.760 C 380.800 53.409,380.260 52.617,379.600 52.000 C 378.940 51.383,378.400 50.631,378.400 50.328 C 378.400 50.025,378.040 49.517,377.600 49.200 C 377.160 48.883,376.800 48.343,376.800 48.000 C 376.800 47.657,376.440 47.117,376.000 46.800 C 375.560 46.483,375.200 45.935,375.200 45.581 C 375.200 45.228,374.750 44.517,374.200 44.000 C 373.650 43.483,373.200 42.903,373.200 42.711 C 373.200 42.519,371.940 41.119,370.400 39.600 C 368.860 38.081,367.600 36.645,367.600 36.409 C 367.600 35.856,364.154 32.400,363.603 32.400 C 363.373 32.400,362.036 31.275,360.632 29.900 C 357.393 26.728,355.005 24.800,354.315 24.800 C 354.019 24.800,353.517 24.440,353.200 24.000 C 352.883 23.560,352.343 23.200,352.000 23.200 C 351.657 23.200,351.117 22.840,350.800 22.400 C 350.483 21.960,349.943 21.600,349.600 21.600 C 349.257 21.600,348.717 21.240,348.400 20.800 C 348.083 20.360,347.543 20.000,347.200 20.000 C 346.857 20.000,346.317 19.640,346.000 19.200 C 345.683 18.760,345.103 18.400,344.712 18.400 C 344.320 18.400,344.000 18.220,344.000 18.000 C 344.000 17.780,343.640 17.600,343.200 17.600 C 342.760 17.600,342.400 17.420,342.400 17.200 C 342.400 16.980,342.130 16.800,341.800 16.800 C 341.470 16.800,341.200 16.620,341.200 16.400 C 341.200 16.180,340.840 16.000,340.400 16.000 C 339.960 16.000,339.600 15.820,339.600 15.600 C 339.600 15.380,339.240 15.200,338.800 15.200 C 338.360 15.200,338.000 15.020,338.000 14.800 C 338.000 14.580,337.640 14.400,337.200 14.400 C 336.760 14.400,336.400 14.220,336.400 14.000 C 336.400 13.780,336.040 13.600,335.600 13.600 C 335.160 13.600,334.800 13.420,334.800 13.200 C 334.800 12.980,334.440 12.800,334.000 12.800 C 333.560 12.800,333.200 12.620,333.200 12.400 C 333.200 12.180,332.840 12.000,332.400 12.000 C 331.960 12.000,331.600 11.820,331.600 11.600 C 331.600 11.380,331.060 11.200,330.400 11.200 C 329.740 11.200,329.200 11.020,329.200 10.800 C 329.200 10.580,328.851 10.400,328.424 10.400 C 327.997 10.400,327.536 10.220,327.400 10.000 C 327.264 9.780,326.713 9.600,326.176 9.600 C 325.639 9.600,325.200 9.440,325.200 9.245 C 325.200 9.050,324.390 8.769,323.400 8.621 C 322.410 8.472,321.600 8.182,321.600 7.975 C 321.600 7.769,320.880 7.600,320.000 7.600 C 319.120 7.600,318.400 7.420,318.400 7.200 C 318.400 6.980,317.680 6.800,316.800 6.800 C 315.920 6.800,315.200 6.620,315.200 6.400 C 315.200 6.180,314.660 6.000,314.000 6.000 C 313.340 6.000,312.800 5.820,312.800 5.600 C 312.800 5.380,312.080 5.200,311.200 5.200 C 310.320 5.200,309.600 5.020,309.600 4.800 C 309.600 4.580,308.970 4.400,308.200 4.400 C 307.430 4.400,306.800 4.220,306.800 4.000 C 306.800 3.780,305.900 3.600,304.800 3.600 C 303.700 3.600,302.800 3.420,302.800 3.200 C 302.800 2.978,301.733 2.800,300.400 2.800 C 299.067 2.800,298.000 2.622,298.000 2.400 C 298.000 2.180,297.100 2.000,296.000 2.000 C 294.900 2.000,294.000 1.820,294.000 1.600 C 294.000 1.365,292.611 1.200,290.633 1.200 C 288.296 1.200,287.216 1.047,287.100 0.700 C 286.944 0.233,128.049 -0.150,116.500 0.289 M90.969 134.742 C 99.132 137.492,106.390 143.353,109.924 150.049 C 110.549 151.232,111.250 152.560,111.483 153.000 C 112.485 154.893,113.133 157.014,113.968 161.131 C 114.567 164.082,114.568 235.108,113.969 238.069 C 113.461 240.588,111.971 245.630,111.568 246.200 C 111.413 246.420,110.923 247.250,110.480 248.045 C 108.952 250.788,108.596 251.351,107.616 252.573 C 105.760 254.886,100.732 259.488,99.066 260.398 C 94.280 263.011,93.059 263.600,92.426 263.600 C 92.045 263.600,91.605 263.729,91.447 263.886 C 91.290 264.043,90.315 264.427,89.281 264.740 C 86.709 265.515,37.076 265.927,36.176 265.180 C 35.577 264.683,35.255 135.765,35.849 134.216 C 36.076 133.625,38.419 133.578,62.149 133.688 L 88.200 133.809 90.969 134.742 M220.312 139.369 C 220.396 143.556,220.296 145.019,219.912 145.263 C 219.630 145.442,205.585 145.591,188.700 145.594 L 158.000 145.600 158.000 169.597 L 158.000 193.594 183.100 193.697 L 208.200 193.800 208.200 199.600 L 208.200 205.400 183.103 205.503 L 158.005 205.606 157.903 235.503 L 157.800 265.400 150.201 265.509 C 143.409 265.607,142.549 265.546,142.101 264.933 C 141.574 264.211,141.330 136.448,141.853 134.498 L 142.094 133.596 181.147 133.698 L 220.200 133.800 220.312 139.369 M254.701 199.158 C 254.775 247.131,254.683 264.659,254.352 265.058 C 253.742 265.793,239.210 265.850,238.480 265.120 C 237.951 264.591,237.747 134.386,238.275 133.859 C 238.426 133.708,242.161 133.633,246.575 133.692 L 254.600 133.800 254.701 199.158 M334.517 134.204 C 342.670 135.911,350.152 140.927,355.043 147.963 C 355.584 148.742,357.735 152.992,358.351 154.500 C 358.598 155.105,358.968 156.005,359.173 156.500 C 359.996 158.488,360.135 160.665,360.135 171.600 C 360.135 182.347,359.994 184.678,359.226 186.600 C 355.726 195.360,350.038 202.217,343.800 205.198 C 343.140 205.513,342.150 206.060,341.600 206.413 C 340.293 207.253,336.716 208.425,334.200 208.840 C 333.100 209.021,331.441 209.311,330.513 209.485 L 328.825 209.800 331.411 213.800 C 332.833 216.000,334.330 218.340,334.738 219.000 C 335.146 219.660,336.289 221.460,337.277 223.000 C 338.266 224.540,339.307 226.239,339.591 226.775 C 339.876 227.311,340.444 228.110,340.854 228.550 C 341.264 228.991,341.600 229.503,341.600 229.689 C 341.600 229.875,342.860 231.905,344.400 234.200 C 345.940 236.495,347.200 238.463,347.200 238.574 C 347.200 238.684,348.730 241.115,350.600 243.977 C 352.470 246.839,354.000 249.249,354.000 249.333 C 354.000 249.417,355.080 251.128,356.400 253.135 C 357.720 255.142,358.800 256.968,358.800 257.192 C 358.800 257.416,358.950 257.600,359.132 257.600 C 359.315 257.600,359.715 258.095,360.022 258.700 C 360.328 259.305,361.273 260.847,362.122 262.126 C 364.469 265.663,364.605 265.600,354.632 265.600 L 346.038 265.600 344.819 263.828 C 344.149 262.853,343.600 261.863,343.600 261.628 C 343.600 261.393,343.448 261.200,343.263 261.200 C 343.077 261.200,342.513 260.398,342.009 259.418 C 341.505 258.437,340.757 257.275,340.346 256.834 C 339.936 256.394,339.600 255.933,339.600 255.811 C 339.600 255.688,338.938 254.555,338.128 253.294 C 331.518 242.995,328.982 238.969,328.431 237.900 C 328.120 237.295,327.715 236.800,327.532 236.800 C 327.350 236.800,327.200 236.612,327.200 236.382 C 327.200 236.152,326.300 234.630,325.200 233.000 C 324.100 231.370,323.200 229.951,323.200 229.847 C 323.200 229.744,322.329 228.341,321.264 226.729 C 318.573 222.658,312.400 212.788,312.400 212.557 C 312.400 212.452,312.040 211.980,311.600 211.508 C 311.160 211.036,310.800 210.413,310.800 210.125 C 310.800 209.715,309.483 209.600,304.800 209.600 L 298.800 209.600 298.800 236.826 C 298.800 254.829,298.660 264.315,298.386 264.826 C 297.968 265.606,284.468 266.061,282.633 265.357 C 281.972 265.104,281.609 134.525,282.267 133.867 C 282.875 133.258,331.501 133.572,334.517 134.204 M52.400 199.600 L 52.400 253.600 65.180 253.600 C 80.370 253.600,83.011 253.235,87.642 250.500 C 92.172 247.824,95.462 243.624,97.143 238.372 C 97.745 236.491,97.800 161.371,97.200 161.000 C 96.980 160.864,96.800 160.482,96.800 160.151 C 96.800 157.371,91.252 150.298,87.532 148.335 C 82.639 145.753,81.457 145.600,66.300 145.600 L 52.400 145.600 52.400 199.600 M298.800 171.627 L 298.800 197.655 312.900 197.500 C 327.868 197.336,330.042 197.078,332.862 195.133 C 333.446 194.730,334.085 194.400,334.281 194.400 C 335.529 194.400,342.000 187.041,342.000 185.622 C 342.000 185.390,342.180 185.200,342.400 185.200 C 342.620 185.200,342.800 184.671,342.800 184.024 C 342.800 183.377,342.953 182.752,343.141 182.636 C 344.501 181.796,344.503 161.005,343.143 160.165 C 342.954 160.048,342.800 159.639,342.800 159.256 C 342.800 158.381,341.901 156.407,341.500 156.403 C 341.335 156.401,341.197 156.175,341.193 155.900 C 341.173 154.543,336.232 149.536,333.591 148.197 C 328.661 145.695,327.895 145.600,312.734 145.600 L 298.800 145.600 298.800 171.627 " stroke="none" fill="#0c44a4" fill-rule="evenodd"></path><path id="path3" d="M36.267 134.267 C 35.896 134.637,35.929 264.800,36.300 264.800 C 36.465 264.800,36.554 235.615,36.498 199.944 C 36.422 152.238,36.515 134.944,36.847 134.544 C 37.295 134.004,36.777 133.756,36.267 134.267 M82.500 134.287 C 83.105 134.378,84.095 134.378,84.700 134.287 C 85.305 134.195,84.810 134.120,83.600 134.120 C 82.390 134.120,81.895 134.195,82.500 134.287 M238.643 134.633 C 238.288 135.557,238.345 264.319,238.700 264.538 C 238.865 264.640,238.954 235.556,238.898 199.906 C 238.822 152.228,238.915 134.944,239.247 134.544 C 239.527 134.205,239.545 134.000,239.292 134.000 C 239.068 134.000,238.776 134.285,238.643 134.633 M282.667 134.267 C 282.144 134.789,282.356 264.196,282.880 264.720 C 283.224 265.064,285.352 265.176,290.380 265.114 L 297.400 265.028 290.200 264.814 L 283.000 264.600 283.000 199.300 C 283.000 163.385,282.985 134.000,282.967 134.000 C 282.948 134.000,282.813 134.120,282.667 134.267 M329.305 134.287 C 329.914 134.379,330.814 134.377,331.305 134.282 C 331.797 134.187,331.300 134.111,330.200 134.114 C 329.100 134.117,328.697 134.195,329.305 134.287 M86.833 134.547 C 86.925 134.628,87.720 134.804,88.600 134.938 C 89.715 135.107,89.958 135.071,89.400 134.819 C 88.632 134.471,86.490 134.244,86.833 134.547 M142.195 199.400 C 142.195 235.260,142.242 249.871,142.300 231.868 C 142.358 213.866,142.358 184.526,142.300 166.668 C 142.242 148.811,142.195 163.540,142.195 199.400 M253.999 199.600 L 253.800 264.600 246.600 264.814 L 239.400 265.028 246.451 265.114 C 251.980 265.181,253.599 265.083,253.952 264.658 C 254.283 264.259,254.375 246.888,254.301 199.358 L 254.199 134.600 253.999 199.600 M98.010 138.526 C 98.609 139.174,101.295 140.797,100.818 140.222 C 100.510 139.851,99.705 139.266,99.029 138.923 C 98.353 138.579,97.895 138.401,98.010 138.526 M351.204 144.300 C 352.612 145.895,353.833 147.200,353.919 147.200 C 354.184 147.200,350.942 143.456,349.763 142.400 C 349.149 141.850,349.797 142.705,351.204 144.300 M105.632 145.000 C 106.681 146.528,108.000 148.059,107.985 147.731 C 107.977 147.549,107.320 146.680,106.527 145.800 C 105.733 144.920,105.330 144.560,105.632 145.000 M188.817 144.700 C 171.997 144.758,158.101 144.939,157.937 145.103 C 157.774 145.266,171.581 145.353,188.620 145.295 C 208.682 145.227,219.600 145.051,219.600 144.795 C 219.600 144.578,219.555 144.444,219.500 144.497 C 219.445 144.551,205.638 144.642,188.817 144.700 M51.867 145.067 C 51.496 145.437,51.529 254.000,51.900 254.000 C 52.065 254.000,52.154 229.522,52.097 199.605 L 51.994 145.211 65.097 145.100 L 78.200 144.989 65.167 144.894 C 57.998 144.842,52.013 144.920,51.867 145.067 M298.261 145.100 C 298.159 145.265,301.973 145.354,306.738 145.298 C 323.039 145.106,324.598 144.972,311.524 144.886 C 304.332 144.839,298.364 144.935,298.261 145.100 M354.839 148.976 C 355.301 149.759,355.756 150.400,355.850 150.400 C 356.134 150.400,354.836 148.069,354.402 147.801 C 354.180 147.664,354.377 148.193,354.839 148.976 M90.898 150.442 C 92.163 151.629,93.738 153.300,94.398 154.155 C 95.059 155.010,95.600 155.570,95.600 155.398 C 95.600 154.820,92.001 150.867,90.293 149.570 C 88.992 148.581,89.132 148.783,90.898 150.442 M338.400 151.400 C 339.146 152.170,339.847 152.800,339.957 152.800 C 340.067 152.800,339.546 152.170,338.800 151.400 C 338.054 150.630,337.353 150.000,337.243 150.000 C 337.133 150.000,337.654 150.630,338.400 151.400 M343.444 159.800 C 343.773 161.271,344.002 161.590,343.994 160.567 C 343.991 160.145,343.805 159.530,343.582 159.200 C 343.285 158.762,343.248 158.924,343.444 159.800 M359.206 160.033 C 359.209 160.785,359.377 161.661,359.579 161.979 C 359.816 162.354,359.865 161.930,359.718 160.779 C 359.435 158.570,359.198 158.225,359.206 160.033 M97.444 160.600 C 97.773 162.071,98.002 162.390,97.994 161.367 C 97.991 160.945,97.805 160.330,97.582 160.000 C 97.285 159.562,97.248 159.724,97.444 160.600 M113.400 199.583 C 113.400 220.997,113.525 237.817,113.677 236.959 C 114.022 235.015,113.999 163.437,113.653 161.824 C 113.514 161.177,113.400 178.168,113.400 199.583 M344.492 171.467 C 344.441 176.124,344.296 180.264,344.170 180.667 C 343.960 181.334,343.979 181.339,344.378 180.721 C 344.670 180.268,344.777 177.209,344.700 171.521 L 344.583 163.000 344.492 171.467 M360.159 171.600 C 360.159 174.790,360.221 176.095,360.297 174.500 C 360.373 172.905,360.373 170.295,360.297 168.700 C 360.221 167.105,360.159 168.410,360.159 171.600 M359.449 181.415 C 359.312 181.773,359.221 182.546,359.246 183.133 C 359.280 183.932,359.370 183.798,359.604 182.600 C 359.935 180.900,359.862 180.340,359.449 181.415 M341.386 187.700 L 340.752 189.000 341.567 188.000 C 342.352 187.037,342.608 186.400,342.210 186.400 C 342.106 186.400,341.735 186.985,341.386 187.700 M336.575 193.300 L 335.400 194.600 336.798 193.400 C 337.567 192.740,338.272 192.155,338.365 192.100 C 338.457 192.045,338.357 192.000,338.142 192.000 C 337.926 192.000,337.221 192.585,336.575 193.300 M354.959 193.700 C 354.595 194.415,353.495 195.990,352.514 197.200 L 350.731 199.400 352.595 197.400 C 354.260 195.613,356.331 192.400,355.818 192.400 C 355.710 192.400,355.323 192.985,354.959 193.700 M207.687 199.300 L 207.600 204.800 182.824 204.800 C 169.197 204.800,157.964 204.935,157.862 205.100 C 157.760 205.265,168.916 205.352,182.653 205.294 C 202.582 205.210,207.670 205.084,207.827 204.673 C 207.936 204.390,207.969 201.827,207.899 198.979 L 207.774 193.800 207.687 199.300 M324.900 197.887 C 325.505 197.978,326.495 197.978,327.100 197.887 C 327.705 197.795,327.210 197.720,326.000 197.720 C 324.790 197.720,324.295 197.795,324.900 197.887 M339.400 206.638 C 338.300 207.172,337.850 207.494,338.400 207.354 C 339.572 207.055,341.600 206.063,341.600 205.790 C 341.600 205.553,341.765 205.489,339.400 206.638 M335.200 208.018 C 334.762 208.315,334.924 208.352,335.800 208.156 C 337.271 207.827,337.590 207.598,336.567 207.606 C 336.145 207.609,335.530 207.795,335.200 208.018 M328.900 208.682 C 327.981 208.859,327.682 209.757,328.395 210.197 C 328.619 210.335,328.691 210.182,328.562 209.845 C 328.334 209.250,328.900 209.066,332.200 208.666 C 332.906 208.580,332.659 208.518,331.600 208.514 C 330.610 208.511,329.395 208.587,328.900 208.682 M298.261 209.100 C 298.158 209.265,299.992 209.353,302.337 209.295 C 309.919 209.108,310.741 208.950,304.524 208.874 C 301.182 208.833,298.363 208.935,298.261 209.100 M330.409 213.337 C 330.404 213.522,330.760 214.131,331.200 214.691 C 331.640 215.250,331.996 215.549,331.991 215.354 C 331.979 214.887,330.420 212.900,330.409 213.337 M315.009 216.226 C 315.381 216.901,316.041 217.891,316.476 218.426 L 317.267 219.400 316.591 218.174 C 316.219 217.499,315.559 216.509,315.124 215.974 L 314.333 215.000 315.009 216.226 M334.749 220.200 C 334.965 220.640,335.434 221.360,335.793 221.800 L 336.444 222.600 336.051 221.800 C 335.835 221.360,335.366 220.640,335.007 220.200 L 334.356 219.400 334.749 220.200 M338.800 226.513 C 338.800 226.895,341.650 231.200,341.903 231.200 C 342.007 231.200,341.772 230.705,341.382 230.100 C 339.644 227.408,338.800 226.236,338.800 226.513 M323.960 230.200 C 324.634 231.505,325.188 232.228,325.185 231.800 C 325.183 231.580,324.814 230.950,324.364 230.400 C 323.821 229.736,323.685 229.669,323.960 230.200 M98.101 235.000 C 98.105 235.880,98.187 236.193,98.283 235.695 C 98.379 235.198,98.375 234.478,98.275 234.095 C 98.175 233.713,98.096 234.120,98.101 235.000 M329.009 238.226 C 329.381 238.901,330.041 239.891,330.476 240.426 L 331.267 241.400 330.591 240.174 C 330.219 239.499,329.559 238.509,329.124 237.974 L 328.333 237.000 329.009 238.226 M112.673 240.153 C 112.523 240.545,112.411 241.166,112.425 241.533 C 112.442 241.975,112.581 241.874,112.837 241.234 C 113.049 240.703,113.161 240.082,113.085 239.854 C 113.009 239.627,112.824 239.761,112.673 240.153 M348.073 241.400 C 348.323 241.950,348.684 242.400,348.873 242.400 C 349.063 242.400,348.924 241.950,348.563 241.400 C 348.203 240.850,347.843 240.400,347.763 240.400 C 347.683 240.400,347.822 240.850,348.073 241.400 M95.563 242.900 C 95.094 243.835,94.325 245.049,93.855 245.597 L 93.000 246.594 93.943 245.797 C 94.818 245.058,97.060 241.200,96.615 241.200 C 96.506 241.200,96.032 241.965,95.563 242.900 M90.984 248.521 C 89.874 249.444,88.524 250.523,87.984 250.917 C 87.011 251.627,87.014 251.628,88.216 250.981 C 89.373 250.359,93.622 246.825,93.200 246.836 C 93.090 246.839,92.093 247.597,90.984 248.521 M353.549 249.800 C 353.765 250.240,354.234 250.960,354.593 251.400 L 355.244 252.200 354.851 251.400 C 354.635 250.960,354.166 250.240,353.807 249.800 L 353.156 249.000 353.549 249.800 M107.544 251.500 C 106.393 252.889,105.906 253.600,106.104 253.600 C 106.214 253.600,106.786 252.970,107.373 252.200 C 108.463 250.771,108.595 250.232,107.544 251.500 M337.960 252.200 C 338.634 253.505,339.188 254.228,339.185 253.800 C 339.183 253.580,338.814 252.950,338.364 252.400 C 337.821 251.736,337.685 251.669,337.960 252.200 M80.200 253.600 C 79.111 253.877,79.093 253.907,80.000 253.925 C 80.550 253.935,81.360 253.789,81.800 253.600 C 82.786 253.176,81.866 253.176,80.200 253.600 M104.434 255.353 L 103.469 256.600 104.613 255.512 C 105.243 254.914,105.677 254.353,105.579 254.265 C 105.480 254.177,104.965 254.667,104.434 255.353 M357.600 256.113 C 357.600 256.495,360.450 260.800,360.703 260.800 C 360.807 260.800,360.572 260.305,360.182 259.700 C 358.444 257.008,357.600 255.836,357.600 256.113 M341.960 258.600 C 342.634 259.905,343.188 260.628,343.185 260.200 C 343.183 259.980,342.814 259.350,342.364 258.800 C 341.821 258.136,341.685 258.069,341.960 258.600 M346.136 264.894 C 346.391 265.056,350.110 265.157,354.400 265.120 C 362.873 265.046,361.847 264.874,351.936 264.706 C 348.491 264.648,345.881 264.732,346.136 264.894 M48.328 265.100 C 54.559 265.162,64.639 265.162,70.728 265.100 C 76.818 265.038,71.720 264.987,59.400 264.987 C 47.080 264.987,42.098 265.038,48.328 265.100 M145.900 265.098 C 147.935 265.171,151.265 265.171,153.300 265.098 C 155.335 265.025,153.670 264.966,149.600 264.966 C 145.530 264.966,143.865 265.025,145.900 265.098 " stroke="none" fill="#94acd4" fill-rule="evenodd"></path><path id="path4" d="M48.529 133.900 C 55.089 133.962,65.709 133.961,72.129 133.900 C 78.548 133.838,73.180 133.787,60.200 133.788 C 47.220 133.788,41.968 133.838,48.529 133.900 M142.262 133.900 C 142.094 134.172,169.412 134.169,205.600 133.894 C 213.190 133.836,202.086 133.747,180.924 133.695 C 159.762 133.643,142.364 133.735,142.262 133.900 M246.382 133.895 C 251.635 133.983,253.865 134.160,254.113 134.509 C 254.365 134.865,254.416 134.834,254.297 134.400 C 254.160 133.894,252.946 133.798,246.567 133.786 L 239.000 133.772 246.382 133.895 M294.929 133.900 C 301.489 133.962,312.109 133.961,318.529 133.900 C 324.948 133.838,319.580 133.787,306.600 133.788 C 293.620 133.788,288.368 133.838,294.929 133.900 M219.755 139.400 C 219.756 142.260,219.820 143.378,219.897 141.883 C 219.974 140.389,219.974 138.049,219.896 136.683 C 219.818 135.318,219.755 136.540,219.755 139.400 M157.795 169.800 L 157.800 193.800 182.600 193.805 L 207.400 193.809 182.703 193.702 L 158.006 193.594 157.898 169.697 L 157.791 145.800 157.795 169.800 M298.189 171.400 C 298.189 185.700,298.239 191.492,298.300 184.271 C 298.361 177.050,298.361 165.350,298.300 158.271 C 298.239 151.192,298.189 157.100,298.189 171.400 M360.109 164.400 C 360.109 165.390,360.187 165.795,360.282 165.300 C 360.378 164.805,360.378 163.995,360.282 163.500 C 360.187 163.005,360.109 163.410,360.109 164.400 M98.191 199.200 C 98.191 218.230,98.240 226.015,98.300 216.500 C 98.360 206.985,98.360 191.415,98.300 181.900 C 98.240 172.385,98.191 180.170,98.191 199.200 M305.125 197.899 C 308.714 197.966,314.474 197.966,317.925 197.899 C 321.376 197.833,318.440 197.778,311.400 197.778 C 304.360 197.779,301.536 197.833,305.125 197.899 M157.790 235.000 C 157.790 251.280,157.839 257.882,157.900 249.670 C 157.960 241.459,157.960 228.139,157.900 220.070 C 157.839 212.002,157.790 218.720,157.790 235.000 M298.184 209.700 C 298.079 209.975,298.040 222.530,298.097 237.600 L 298.200 265.000 298.400 237.100 C 298.510 221.755,298.549 209.200,298.487 209.200 C 298.426 209.200,298.289 209.425,298.184 209.700 M82.300 265.082 C 82.795 265.178,83.605 265.178,84.100 265.082 C 84.595 264.987,84.190 264.909,83.200 264.909 C 82.210 264.909,81.805 264.987,82.300 265.082 " stroke="none" fill="#84a4d4" fill-rule="evenodd"></path></g></svg>